<svg xmlns="http://www.w3.org/2000/svg" viewBox="0 0 24 24" fill="currentColor" aria-hidden="true">
  <path
    d="M12 2C6.48 2 2 6.48 2 12s4.48 10 10 10 10-4.48 10-10S17.52 2 12 2zm4.64 6.8c-.15 1.58-.8 5.42-1.13 7.19-.14.75-.42 1-.68 1.03-.58.05-1.02-.38-1.58-.75-.88-.58-1.38-.94-2.23-1.5-.99-.65-.35-1.01.22-1.59.15-.15 2.71-2.48 2.76-2.69.04-.17-.01-.25-.2-.33-.14-.05-.36-.07-.46-.07-.1 0-.21.02-.31.06-.11.03-3.65 2.25-5.1 3.15-.51.33-.96.49-1.37.48-.45-.01-1.32-.25-1.96-.46-.78-.26-1.4-.4-1.35-.85.03-.23.35-.47.96-.72 3.78-1.65 6.32-2.73 7.61-3.28 1.82-.75 2.2-.88 2.45-.89.06 0 .19-.01.27.06.07.05.09.17.08.24-.01.07-.02.13-.04.2z"
  />
</svg>
