<svg xmlns="http://www.w3.org/2000/svg" viewBox="0 0 24 24" fill="currentColor" aria-hidden="true">
  <path
    d="M15.684 0H8.316C1.592 0 0 1.592 0 8.316v7.368C0 22.408 1.592 24 8.316 24h7.368C22.408 24 24 22.408 24 15.684V8.316C24 1.592 22.408 0 15.684 0zm2.071 16.898h-1.893c-.716 0-.932-.568-1.953-1.875-.972-1.077-1.404-1.235-1.64-1.235-.156 0-.444.129-.444.518v1.272c0 .363-.104.583-1.263.583-1.876 0-3.934-1.043-5.406-2.957-2.23-2.778-2.842-4.864-2.842-5.294 0-.208.052-.404.521-.404h1.905c.391 0 .43.169.574.478.625 1.526 1.668 2.874 2.098 2.874.156 0 .247-.069.247-.535V9.01c-.052-.89-.52-1.03-.979-1.086-.052-.091-.042-.174-.156-.174h-.339c-.182 0-.482-.052-.482-.404 0-.384.404-.404.404-.404 2.07.875 3.47 1.458 4.158 1.75 2.07.865 2.498 1.021 2.768 1.021.086 0 .287-.017.287-.247v-2.07c0-.182-.078-.247-.247-.247h-1.147c-.208 0-.287-.13-.287-.287 0-.312.312-.41.625-.547 1.147-.495 2.498-1.095 3.08-1.37.312-.156.563-.234.797-.234.339 0 .495.182.495.625v4.55c0 .417.104.573.339.573.156 0 .417-.104.833-.36 1.297-.89 2.29-2.498 2.29-2.615 0-.052-.052-.104-.156-.104h-1.37c-.312 0-.443-.234-.443-.443 0-.339.339-.625.339-.625.339-.182 1.563-1.042 2.498-1.042.182 0 .339.026.495.078.964.339 1.042 1.172 1.042 1.172s.104.573-.287 1.042c-.833 1.042-1.797 1.953-1.797 2.29 0 .052.026.104.078.156.339.443 1.407 1.484 1.407 2.29 0 .339-.104.573-.573.573z"
  />
</svg>
